<svg width="79" height="100" viewBox="0 0 79 100" fill="none" xmlns="http://www.w3.org/2000/svg">
<path d="M76.85 4.5713V95.8912L40.8578 72.6492L39.8 71.9661L38.7422 72.6492L2.74999 95.8912V4.5713C4.63301 5.86509 7.30433 7.53281 10.6575 9.19843C17.6735 12.6835 27.722 16.1824 39.8 16.1824C51.8779 16.1824 61.9265 12.6835 68.9425 9.19843C72.2956 7.53281 74.967 5.86509 76.85 4.5713Z" fill="url(#paint0_linear_188_24)" stroke="url(#paint1_linear_188_24)" stroke-width="3.9"/>
<path d="M32.7677 35.1084C32.2095 35.1084 31.7242 34.9021 31.3117 34.4896C30.8991 34.0771 30.6929 33.5917 30.6929 33.0336V32.1964C30.6929 31.6383 30.8991 31.1529 31.3117 30.7404C31.7242 30.3279 32.2095 30.1216 32.7677 30.1216H46.3449C46.903 30.1216 47.3883 30.3279 47.8009 30.7404C48.2134 31.1529 48.4197 31.6383 48.4197 32.1964V33.0336C48.4197 34.4168 47.8858 35.5452 46.8181 36.4188L41.3217 40.9688V41.0052C41.3217 41.0295 41.3338 41.0416 41.3581 41.0416H41.7949C43.9061 41.0416 45.5926 41.6968 46.8545 43.0072C48.1406 44.3176 48.7837 46.0891 48.7837 48.3216C48.7837 51.1365 47.9222 53.2963 46.1993 54.8008C44.4763 56.3053 42.0011 57.0576 38.7737 57.0576C36.8323 57.0576 34.8667 56.8271 32.8769 56.366C32.2945 56.2204 31.8091 55.9049 31.4209 55.4196C31.0569 54.91 30.8749 54.3397 30.8749 53.7088V52.4712C30.8749 51.9859 31.069 51.6097 31.4573 51.3428C31.8698 51.0516 32.3187 50.9788 32.8041 51.1244C34.891 51.8039 36.711 52.1436 38.2641 52.1436C39.6715 52.1436 40.7635 51.816 41.5401 51.1608C42.3166 50.5056 42.7049 49.5956 42.7049 48.4308C42.7049 47.2417 42.2559 46.4045 41.3581 45.9192C40.4602 45.4339 38.7858 45.1791 36.3349 45.1548C35.7767 45.1548 35.2914 44.9607 34.8789 44.5724C34.4663 44.1599 34.2601 43.6745 34.2601 43.1164V43.0436C34.2601 41.6847 34.7818 40.5563 35.8253 39.6584L40.9941 35.1812V35.1448C40.9941 35.1205 40.9819 35.1084 40.9577 35.1084H32.7677Z" fill="white"/>
<defs>
<linearGradient id="paint0_linear_188_24" x1="39.8" y1="0.671631" x2="39.8" y2="99.4716" gradientUnits="userSpaceOnUse">
<stop stop-color="#DD865D"/>
<stop offset="1" stop-color="#D69F4E"/>
</linearGradient>
<linearGradient id="paint1_linear_188_24" x1="39.8" y1="0.671631" x2="39.8" y2="99.4716" gradientUnits="userSpaceOnUse">
<stop stop-color="#E28D5C"/>
<stop offset="1" stop-color="#EBC35C"/>
</linearGradient>
</defs>
</svg>
