<svg width="46" height="40" viewBox="0 0 46 40" fill="none" xmlns="http://www.w3.org/2000/svg">
<path d="M28.682 25.5269C28.665 26.6569 27.8156 27.2009 26.7832 26.7432L18.7304 24.6357C17.6973 24.177 16.8734 22.8908 16.89 21.7626L15.7388 9.50155C15.7554 8.37331 16.6047 7.82926 17.6376 8.28525L28.2941 14.4576C29.3259 14.9142 30.1498 16.2004 30.1345 17.3307L28.682 25.5269Z" fill="#F4900C"/>
<path d="M39.6351 21.3764C39.6181 22.5063 38.7687 23.0504 37.7362 22.5927L29.6835 20.4852C28.6504 20.0265 27.8272 18.7414 27.8431 17.6121L28.7238 4.04949C28.7404 2.92125 29.5897 2.3772 30.6226 2.83318L39.2472 10.3071C40.2797 10.7648 41.1029 12.0499 41.0876 13.1802L39.6351 21.3764Z" fill="#F4900C"/>
<path d="M20.332 33.7412C20.315 34.8712 19.4647 35.4159 18.4312 34.9589L10.3795 32.8507C9.34632 32.392 8.52308 31.1068 8.53905 29.9776L5.35488 19.0187C5.37251 17.8898 6.22286 17.3451 7.25572 17.8011L19.9441 22.6719C20.9766 23.1296 21.7998 24.4147 21.7845 25.545L20.332 33.7412Z" fill="#F4900C"/>
<path d="M33.5448 1.65769C33.036 3.98614 32.6287 6.33563 32.3242 8.69949L21.9244 2.67508C20.8909 2.21807 20.0416 2.76213 20.0246 3.89204L21.1481 15.8571L10.749 9.83365C9.71545 9.37665 8.8651 9.92135 8.84811 11.0513L9.97267 23.0156C7.69828 22.3041 5.39396 21.692 3.06626 21.1811C1.39953 20.8159 -0.0701089 21.8433 1.68514 23.4986C5.30421 26.9116 7.25655 29.9595 10.5104 35.0392L11.812 37.0711C12.5024 38.1489 13.5927 38.9083 14.8429 39.1822C16.0932 39.4561 17.4011 39.2222 18.4789 38.5318L42.8617 22.9131C43.9395 22.2227 44.6989 21.1324 44.9728 19.8821C45.2468 18.6318 45.0128 17.3239 44.3224 16.2462L43.0209 14.2143C39.767 9.13451 37.8146 6.08666 36.2274 1.37208C35.4567 -0.913841 33.9099 -0.00904169 33.5448 1.65769Z" fill="#FFCC4D"/>
<path d="M28.5119 20.6425C29.0297 21.4508 29.2052 22.4318 28.9998 23.3695C28.7943 24.3072 28.2248 25.1249 27.4164 25.6427C26.6081 26.1605 25.6272 26.336 24.6894 26.1305C23.7517 25.9251 22.934 25.3555 22.4162 24.5472C21.8984 23.7388 21.723 22.7579 21.9284 21.8202C22.1339 20.8825 22.7034 20.0648 23.5118 19.547C24.3201 19.0292 25.301 18.8537 26.2387 19.0592C27.1765 19.2646 27.9941 19.8342 28.5119 20.6425Z" fill="#5C913B"/>
<path d="M35.6236 16.087C35.7945 16.354 35.9111 16.652 35.9669 16.964C36.0226 17.276 36.0163 17.596 35.9484 17.9056C35.8805 18.2152 35.7523 18.5084 35.5711 18.7684C35.3898 19.0284 35.1592 19.2502 34.8922 19.4211C34.6253 19.592 34.3273 19.7087 34.0153 19.7644C33.7033 19.8202 33.3833 19.8139 33.0737 19.746C32.7641 19.6781 32.4709 19.5498 32.2109 19.3686C31.9508 19.1874 31.729 18.9567 31.5581 18.6898C31.213 18.1507 31.0961 17.4965 31.2333 16.8713C31.3704 16.246 31.7504 15.7008 32.2895 15.3557C32.8286 15.0105 33.4827 14.8937 34.108 15.0308C34.7333 15.168 35.2784 15.5479 35.6236 16.087Z" fill="#DD2F45"/>
<path d="M42.7352 11.5316C42.9061 11.7985 43.0228 12.0965 43.0785 12.4085C43.1343 12.7206 43.128 13.0405 43.0601 13.3501C42.9922 13.6597 42.8639 13.9529 42.6827 14.2129C42.5015 14.473 42.2708 14.6948 42.0039 14.8657C41.7369 15.0366 41.439 15.1532 41.1269 15.209C40.8149 15.2647 40.495 15.2584 40.1854 15.1905C39.8758 15.1226 39.5826 14.9944 39.3225 14.8132C39.0625 14.6319 38.8407 14.4013 38.6698 14.1343C38.3246 13.5952 38.2078 12.9411 38.3449 12.3158C38.4821 11.6905 38.862 11.1454 39.4011 10.8002C39.9402 10.4551 40.5944 10.3382 41.2197 10.4754C41.8449 10.6125 42.3901 10.9925 42.7352 11.5316Z" fill="#5C913B"/>
<path d="M19.3684 26.4995C19.7136 27.0384 19.8306 27.6924 19.6936 28.3175C19.5566 28.9426 19.1769 29.4878 18.638 29.833C18.0992 30.1782 17.4452 30.2951 16.8201 30.1582C16.1949 30.0212 15.6498 29.6415 15.3046 29.1026C14.9594 28.5637 14.8424 27.9098 14.9794 27.2846C15.1163 26.6595 15.496 26.1144 16.0349 25.7692C16.5738 25.424 17.2278 25.307 17.8529 25.444C18.4781 25.5809 19.0232 25.9606 19.3684 26.4995Z" fill="#DD2F45"/>
<path d="M12.2567 31.055C12.6019 31.5939 12.7189 32.2478 12.5819 32.873C12.445 33.4981 12.0653 34.0432 11.5264 34.3884C10.9875 34.7336 10.3336 34.8506 9.70841 34.7136C9.08326 34.5767 8.53813 34.197 8.19293 33.6581C7.84774 33.1192 7.73076 32.4652 7.86772 31.8401C8.00469 31.215 8.38438 30.6698 8.92328 30.3246C9.46217 29.9794 10.1161 29.8625 10.7413 29.9994C11.3664 30.1364 11.9115 30.5161 12.2567 31.055Z" fill="#5C913B"/>
<path d="M44.3224 16.2462C45.0128 17.3239 45.2468 18.6318 44.9728 19.8821C44.6989 21.1324 43.9395 22.2227 42.8617 22.9131L18.4789 38.5318C17.4011 39.2222 16.0932 39.4561 14.8429 39.1822C13.5927 38.9083 12.5024 38.1489 11.812 37.0711L44.3224 16.2462Z" fill="#FFAC33"/>
</svg>
