<svg width="79" height="100" viewBox="0 0 79 100" fill="none" xmlns="http://www.w3.org/2000/svg">
<path d="M76.85 4.57765V95.8975L40.8578 72.6555L39.8 71.9724L38.7422 72.6555L2.74999 95.8975V4.57765C4.63301 5.87144 7.30433 7.53916 10.6575 9.20478C17.6735 12.6898 27.722 16.1888 39.8 16.1888C51.8779 16.1888 61.9265 12.6898 68.9425 9.20478C72.2956 7.53916 74.967 5.87144 76.85 4.57765Z" fill="url(#paint0_linear_188_23)" stroke="url(#paint1_linear_188_23)" stroke-width="3.9"/>
<path d="M33.1317 40.7932C32.7919 41.0601 32.4279 41.0965 32.0397 40.9023C31.6757 40.7082 31.4937 40.3927 31.4937 39.956V37.2987C31.4937 35.9155 32.0518 34.8235 33.1681 34.0227L36.8445 31.3291C37.9365 30.5283 39.1862 30.1279 40.5937 30.1279H42.8869C43.445 30.1279 43.9303 30.3342 44.3429 30.7467C44.7554 31.1593 44.9617 31.6446 44.9617 32.2027V54.6252C44.9617 55.1833 44.7554 55.6686 44.3429 56.0812C43.9303 56.4937 43.445 56.7 42.8869 56.7H40.5937C40.0355 56.7 39.5502 56.4937 39.1377 56.0812C38.7251 55.6686 38.5189 55.1833 38.5189 54.6252V36.9347H38.4825H38.4461L33.1317 40.7932Z" fill="white"/>
<defs>
<linearGradient id="paint0_linear_188_23" x1="39.8" y1="0.677979" x2="39.8" y2="99.478" gradientUnits="userSpaceOnUse">
<stop stop-color="#FBDB65"/>
<stop offset="1" stop-color="#EBA112"/>
</linearGradient>
<linearGradient id="paint1_linear_188_23" x1="39.8" y1="0.677979" x2="39.8" y2="99.478" gradientUnits="userSpaceOnUse">
<stop stop-color="#F0C24D"/>
<stop offset="1" stop-color="#F1C34B"/>
</linearGradient>
</defs>
</svg>
