<svg width="79" height="100" viewBox="0 0 79 100" fill="none" xmlns="http://www.w3.org/2000/svg">
<path d="M76.85 4.57765V95.8975L40.8578 72.6555L39.8 71.9724L38.7422 72.6555L2.74999 95.8975V4.57765C4.63301 5.87144 7.30433 7.53916 10.6575 9.20478C17.6735 12.6898 27.722 16.1888 39.8 16.1888C51.8779 16.1888 61.9265 12.6898 68.9425 9.20478C72.2956 7.53916 74.967 5.87144 76.85 4.57765Z" fill="url(#paint0_linear_188_22)" stroke="url(#paint1_linear_188_22)" stroke-width="3.9"/>
<path d="M32.8769 56.7C32.3187 56.7 31.8334 56.4937 31.4209 56.0812C31.0083 55.6686 30.8021 55.1833 30.8021 54.6252V53.788C30.8021 52.429 31.3481 51.3249 32.4401 50.4756C36.5169 47.2724 39.2105 44.8336 40.5209 43.1592C41.8555 41.4848 42.5229 39.8467 42.5229 38.2451C42.5229 36.0126 41.2853 34.8963 38.8101 34.8963C37.3055 34.8963 35.4613 35.3089 33.2773 36.134C32.8162 36.3038 32.3794 36.2553 31.9669 35.9884C31.5543 35.7214 31.3481 35.3453 31.3481 34.8599V33.3311C31.3481 32.7002 31.5301 32.1421 31.8941 31.6567C32.2581 31.1471 32.7434 30.8074 33.3501 30.6375C35.5583 30.0551 37.6817 29.7639 39.7201 29.7639C42.6563 29.7639 44.9131 30.4677 46.4905 31.8751C48.0921 33.2583 48.8929 35.1876 48.8929 37.6628C48.8929 39.7982 48.2134 41.8366 46.8545 43.7779C45.5198 45.695 42.899 48.3037 38.9921 51.604C38.9678 51.6282 38.9557 51.6525 38.9557 51.6768C38.9557 51.701 38.9678 51.7132 38.9921 51.7132H46.9637C47.5218 51.7132 47.995 51.9194 48.3833 52.332C48.7958 52.7445 49.0021 53.2298 49.0021 53.788V54.6252C49.0021 55.1833 48.7958 55.6686 48.3833 56.0812C47.995 56.4937 47.5218 56.7 46.9637 56.7H32.8769Z" fill="white"/>
<defs>
<linearGradient id="paint0_linear_188_22" x1="39.8" y1="0.677979" x2="39.8" y2="99.478" gradientUnits="userSpaceOnUse">
<stop stop-color="#BFBFBF"/>
<stop offset="1" stop-color="#646464"/>
</linearGradient>
<linearGradient id="paint1_linear_188_22" x1="39.8" y1="0.677979" x2="39.8" y2="99.478" gradientUnits="userSpaceOnUse">
<stop stop-color="#D6D6D6"/>
<stop offset="1" stop-color="#696969"/>
</linearGradient>
</defs>
</svg>
