<svg width="47" height="36" viewBox="0 0 47 36" fill="none" xmlns="http://www.w3.org/2000/svg">
<path d="M42.5 1.33341C40.1875 0.604248 37.6458 0.291748 35.2083 0.291748C31.1458 0.291748 26.7708 1.12508 23.75 3.41675C20.7291 1.12508 16.3541 0.291748 12.2916 0.291748C8.58197 0.291748 4.61172 0.986619 1.64993 2.85225C1.12055 3.18571 0.833313 3.78424 0.833313 4.40989V33.9376C0.833313 34.4584 1.35415 34.9792 1.87498 34.9792C2.08331 34.9792 2.18748 34.8751 2.39581 34.8751C5.20831 33.5209 9.27081 32.5834 12.2916 32.5834C16.3541 32.5834 20.7291 33.4167 23.75 35.7084C26.5625 33.9376 31.6666 32.5834 35.2083 32.5834C38.6458 32.5834 42.1875 33.2084 45.1041 34.7709C45.3125 34.8751 45.4166 34.8751 45.625 34.8751C46.1458 34.8751 46.6666 34.3543 46.6666 33.8334V4.41675C46.6666 3.78723 46.3759 3.18517 45.842 2.85153C44.8227 2.21443 43.7254 1.74189 42.5 1.33341ZM42.5 29.4584C40.2083 28.7292 37.7083 28.4167 35.2083 28.4167C31.6666 28.4167 26.5625 29.7709 23.75 31.5417V7.58342C26.5625 5.81258 31.6666 4.45842 35.2083 4.45842C37.7083 4.45842 40.2083 4.77092 42.5 5.50008V29.4584Z" fill="#80DB56"/>
</svg>
