<svg width="243" height="243" viewBox="0 0 243 243" fill="none" xmlns="http://www.w3.org/2000/svg">
<path fill-rule="evenodd" clip-rule="evenodd" d="M199.951 0H226.978V149.214L229.648 151.885V157.873L226.978 160.544V163.05C226.978 163.356 227.09 163.718 227.476 164.131C227.886 164.57 228.535 164.973 229.311 165.184C233.827 166.414 237.358 169.035 239.698 172.743C241.994 176.381 243 180.826 243 185.588C243 191.729 240.837 196.838 237.04 200.394C233.284 203.911 228.246 205.615 222.973 205.615C211.651 205.615 203.765 196.403 202.957 185.895C202.787 183.689 204.438 181.764 206.643 181.594C208.849 181.425 210.775 183.075 210.944 185.281C211.493 192.418 216.597 197.604 222.973 197.604C226.548 197.604 229.521 196.46 231.564 194.546C233.565 192.672 234.989 189.77 234.989 185.588C234.989 181.899 234.205 179.05 232.923 177.019C231.685 175.057 229.847 173.633 227.206 172.914C223.298 171.849 218.967 168.427 218.967 163.05V160.544L216.297 157.873V151.885L218.967 149.214V17.2348L163.916 99.8106L151.365 115.948C150.007 117.694 147.49 118.009 145.744 116.651C143.998 115.293 143.683 112.776 145.042 111.03L152.475 101.473H137.522C135.31 101.473 133.516 99.6792 133.516 97.467C133.516 95.2549 135.31 93.4615 137.522 93.4615H156.133L151.912 59.3682L127.003 84.2774C125.438 85.8416 122.902 85.8416 121.338 84.2774C119.774 82.7131 119.774 80.177 121.338 78.6127L199.951 0ZM159.411 54.7418L163.315 86.2711L184.334 54.7418H159.411ZM195.824 37.507V15.4558L203.269 8.01099H215.488L195.824 37.507ZM187.813 23.4668V46.7308H164.549L187.813 23.4668ZM22.6978 82.7802C21.9604 82.7802 21.3626 83.378 21.3626 84.1154V158.885C21.3626 159.622 21.9604 160.22 22.6978 160.22H142.863C143.6 160.22 144.198 159.622 144.198 158.885V141.527H91.8678L73.1755 82.7802H22.6978ZM81.5822 82.7802L97.7256 133.516H144.198V131.266C144.198 130.981 144.107 130.704 143.938 130.474L109.195 83.3233C108.943 82.9818 108.544 82.7802 108.12 82.7802H81.5822ZM13.3516 84.1154C13.3516 78.9536 17.5361 74.7692 22.6978 74.7692H108.12C111.09 74.7692 113.883 76.1805 115.644 78.5713L150.387 125.722C151.57 127.328 152.209 129.271 152.209 131.266V158.885C152.209 164.046 148.024 168.231 142.863 168.231H130.846V181.582H148.203C165.163 181.582 178.912 195.331 178.912 212.291C178.912 229.251 165.163 243 148.203 243H30.7088C13.7488 243 0 229.251 0 212.291C0 195.331 13.7488 181.582 30.7088 181.582H48.0659V168.231H22.6978C17.5361 168.231 13.3516 164.046 13.3516 158.885V84.1154ZM56.0769 168.231V181.582H122.835V168.231H56.0769ZM30.7088 189.593C18.1731 189.593 8.01099 199.756 8.01099 212.291C8.01099 224.827 18.1731 234.989 30.7088 234.989H148.203C160.739 234.989 170.901 224.827 170.901 212.291C170.901 199.756 160.739 189.593 148.203 189.593H30.7088Z" fill="black"/>
<path d="M30.7088 201.61C24.8097 201.61 20.0275 206.392 20.0275 212.291C20.0275 218.19 24.8097 222.973 30.7088 222.973C36.6079 222.973 41.3901 218.19 41.3901 212.291C41.3901 206.392 36.6079 201.61 30.7088 201.61Z" fill="black"/>
<path d="M68.0934 201.61C62.1943 201.61 57.4121 206.392 57.4121 212.291C57.4121 218.19 62.1943 222.973 68.0934 222.973C73.9925 222.973 78.7747 218.19 78.7747 212.291C78.7747 206.392 73.9925 201.61 68.0934 201.61Z" fill="black"/>
<path d="M110.819 201.61C104.92 201.61 100.137 206.392 100.137 212.291C100.137 218.19 104.92 222.973 110.819 222.973C116.718 222.973 121.5 218.19 121.5 212.291C121.5 206.392 116.718 201.61 110.819 201.61Z" fill="black"/>
<path d="M148.203 201.61C142.304 201.61 137.522 206.392 137.522 212.291C137.522 218.19 142.304 222.973 148.203 222.973C154.102 222.973 158.885 218.19 158.885 212.291C158.885 206.392 154.102 201.61 148.203 201.61Z" fill="black"/>
</svg>
