<svg width="240" height="243" viewBox="0 0 240 243" fill="none" xmlns="http://www.w3.org/2000/svg">
<path d="M135.267 0.5C146.301 0.5 153.369 3.4491 156.472 9.34731C156.472 20.6233 153.369 26.2613 147.163 26.2613C144.404 26.2613 141.948 24.9602 139.793 22.3581C137.724 19.6692 135.612 17.0237 133.457 14.4215C131.388 11.7326 128.889 10.3882 125.958 10.3882C120.441 10.3882 114.579 16.0695 108.373 27.4323C102.253 38.6215 97.4256 54.4513 93.8914 74.9215V75.4419C93.8914 76.1358 94.15 76.4828 94.6672 76.4828H124.406C125.268 76.4828 125.699 77.5237 125.699 79.6054C125.699 82.4677 124.751 85.4168 122.855 88.4527H92.5984C91.6502 88.4527 91.133 89.1466 91.0468 90.5344L76.8239 168.339C72.6863 192.452 65.4024 210.84 54.9722 223.504C44.5421 236.168 33.2068 242.5 20.9664 242.5C14.9324 242.5 10.1915 241.416 6.74347 239.247C3.29548 237.079 1.05429 234.607 0.0198923 231.831C-0.152507 227.841 0.79569 224.285 2.86448 221.162C4.93328 218.04 7.51927 216.478 10.6225 216.478C13.0361 216.478 15.1479 217.78 16.9581 220.382C18.6821 223.071 20.5354 225.716 22.518 228.318C24.4144 231.007 26.828 232.352 29.7588 232.352C33.2068 232.352 36.4393 230.313 39.4563 226.237C42.5595 222.247 45.361 217.259 47.8608 211.274C50.3605 205.289 52.4293 199.304 54.0671 193.319C55.7049 187.334 56.8255 182.39 57.4289 178.487L72.9449 90.2742V89.7538C72.9449 88.8864 72.6863 88.4527 72.1691 88.4527H55.3601C55.0153 88.4527 54.8429 88.1925 54.8429 87.672C54.8429 86.6312 55.4894 85.2434 56.7824 83.5086C58.0754 81.6871 59.6701 80.0824 61.5665 78.6946C63.5491 77.2201 65.4455 76.4828 67.2557 76.4828H74.7551C75.4447 76.4828 75.9619 75.7021 76.3067 74.1409C78.6341 59.9158 82.7717 47.252 88.7194 36.1495C94.7534 25.047 101.822 16.3297 109.925 9.99785C118.114 3.66595 126.561 0.5 135.267 0.5Z" fill="black"/>
<path d="M162.937 69.1968C170.178 69.1968 176.04 76.743 180.522 91.8355L185.953 110.311L201.21 84.029C206.899 74.1409 214.14 69.1968 222.932 69.1968C228.88 69.1968 233.88 70.9315 237.931 74.4011C239.31 77.09 240 79.3452 240 81.1667C240 83.7688 239.095 85.9806 237.285 87.8021C235.475 89.6237 233.621 90.5344 231.725 90.5344C229.397 90.5344 226.855 89.19 224.096 86.5011C221.338 83.8122 218.709 82.4677 216.209 82.4677C214.14 82.4677 211.813 84.7229 209.227 89.2333L189.832 122.541L200.952 159.231C202.676 165.129 205.003 168.078 207.934 168.078C210.52 168.078 213.278 166.734 216.209 164.045C219.14 161.356 221.208 158.884 222.415 156.629C223.105 156.629 223.967 157.323 225.001 158.711C226.036 160.099 226.553 161.139 226.553 161.833C226.208 163.742 224.57 166.474 221.639 170.03C218.795 173.5 215.39 176.666 211.425 179.528C207.546 182.304 203.796 183.691 200.176 183.691C193.021 183.691 187.16 176.145 182.591 161.053L176.643 140.756L160.351 169.119C154.662 179.008 147.421 183.952 138.629 183.952C132.681 183.952 127.682 182.217 123.63 178.747C122.251 176.319 121.562 174.063 121.562 171.982C121.562 169.38 122.467 167.168 124.277 165.346C126.087 163.525 127.94 162.614 129.837 162.614C132.164 162.614 134.707 163.958 137.465 166.647C140.224 169.336 142.853 170.681 145.353 170.681C147.421 170.681 149.749 168.425 152.335 163.915L172.764 128.526L162.162 93.657C160.438 87.7588 158.11 84.8097 155.179 84.8097C152.593 84.8097 149.835 86.1541 146.904 88.843C143.973 91.5319 141.905 94.0039 140.698 96.2591C140.008 96.2591 139.146 95.5652 138.112 94.1774C137.077 92.7896 136.56 91.7487 136.56 91.0548C136.905 89.0599 138.5 86.3276 141.344 82.8581C144.275 79.3885 147.723 76.2659 151.688 73.4903C155.654 70.628 159.403 69.1968 162.937 69.1968Z" fill="black"/>
</svg>
