<svg width="46" height="46" viewBox="0 0 46 46" fill="none" xmlns="http://www.w3.org/2000/svg">
<path d="M22.3995 12.2988C22.7177 12.1091 23.1146 12.1109 23.4311 12.3034L25.9917 13.8607C26.7481 14.3207 27.6851 13.6434 27.4856 12.7809L26.8034 9.83183C26.7194 9.46846 26.8445 9.08852 27.1281 8.84623L29.4353 6.87463C30.1096 6.29836 29.7555 5.19457 28.8718 5.11812L25.8308 4.85506C25.4608 4.82306 25.139 4.58868 24.9951 4.24637L23.8303 1.47594C23.4882 0.66223 22.3365 0.658531 21.9891 1.47003L20.7982 4.25228C20.6531 4.59134 20.3331 4.823 19.9657 4.85501L16.9445 5.11818C16.0632 5.19494 15.7083 6.29399 16.3782 6.8717L18.6625 8.84165C18.9464 9.08653 19.0695 9.46969 18.9813 9.83414L18.2678 12.7826C18.0595 13.6436 18.9908 14.3303 19.7518 13.8768L22.3995 12.2988ZM29.1667 43.1363C29.1667 44.2409 28.2712 45.1363 27.1667 45.1363H18.6667C17.5621 45.1363 16.6667 44.2409 16.6667 43.1363V20.053C16.6667 18.9485 17.5621 18.053 18.6667 18.053H27.1667C28.2712 18.053 29.1667 18.9484 29.1667 20.053V43.1363ZM2 32.6364C0.895431 32.6364 0 33.5318 0 34.6363V43.1363C0 44.2409 0.895431 45.1363 2 45.1363H10.5C11.6046 45.1363 12.5 44.2409 12.5 43.1363V34.6363C12.5 33.5318 11.6046 32.6364 10.5 32.6364H2ZM35.3333 24.303C34.2288 24.303 33.3333 25.1985 33.3333 26.303V43.1363C33.3333 44.2409 34.2288 45.1363 35.3333 45.1363H43.8333C44.9379 45.1363 45.8333 44.2409 45.8333 43.1363V26.303C45.8333 25.1985 44.9379 24.303 43.8333 24.303H35.3333Z" fill="#80DB56"/>
</svg>
