<svg width="234" height="243" viewBox="0 0 234 243" fill="none" xmlns="http://www.w3.org/2000/svg">
<path fill-rule="evenodd" clip-rule="evenodd" d="M171.932 0.5L227.351 23.4441L218.8 40.5551L202.49 40.5552L198.507 48.9233L208.076 53.7103L202.313 65.6275C208.684 68.1047 216.332 72.2484 222.471 78.1545C230.266 85.654 235.901 96.3384 232.681 109.92C227.516 131.706 223.367 149.501 221.592 157.169C224.279 161.799 225.818 167.18 225.818 172.911C225.818 188.856 213.933 202.024 198.543 204.03V209.752H234V239.771H122.725C120.466 239.771 118.634 237.938 118.634 235.678C118.634 233.417 120.466 231.584 122.725 231.584H225.818V217.939H120.813C118.553 217.939 116.722 216.106 116.722 213.846C116.722 211.585 118.553 209.752 120.813 209.752H190.361V204.03C183.259 203.104 176.905 199.8 172.123 194.951C168.306 199.104 162.872 201.565 157.063 201.565H145.669C139.481 201.565 133.367 200.222 127.75 197.627L100.004 184.815C97.9526 183.867 97.0571 181.435 98.0039 179.382C98.9508 177.33 101.381 176.434 103.433 177.381L131.178 190.194C135.721 192.292 140.665 193.378 145.669 193.378H157.063C161.073 193.378 164.785 191.424 167.064 188.217C164.531 183.687 163.086 178.463 163.086 172.911C163.086 171.474 163.183 170.057 163.371 168.667C161.934 167.33 160.265 166.242 158.429 165.465L94.6696 138.475C92.5886 137.594 91.6154 135.192 92.4958 133.11C93.3762 131.028 95.7768 130.054 97.8577 130.935L161.617 157.925C163.081 158.545 164.474 159.298 165.779 160.17C169.367 152.097 176.257 145.825 184.736 143.064C186.276 139.699 189.819 131.869 196.17 117.622C199.524 110.1 198.059 105.117 195.466 101.721C193.43 99.0542 190.474 97.0978 187.691 95.8625L173.482 125.244C168.516 135.512 156.118 139.737 145.921 134.635L137.013 130.179C127.001 125.17 122.872 113.04 127.748 102.958L162.572 30.9458L172.242 35.7832L175.947 28.7395L165.129 15.2091L171.932 0.5ZM182.675 33.5263L179.562 39.4453L191.188 45.2613L194.383 38.5467L182.675 33.5263ZM200.747 32.3682L213.743 32.3681L216.102 27.6472L176.06 11.069L174.681 14.0504L183.369 24.9164L200.747 32.3682ZM191.256 88.4911C194.976 90.1797 199 92.8642 201.968 96.751C206.481 102.662 208.147 110.853 203.643 120.957C199.408 130.457 196.413 137.124 194.422 141.528C194.432 141.528 194.442 141.528 194.452 141.528C202.33 141.528 209.529 144.436 215.035 149.23C217.18 140.016 220.632 125.271 224.72 108.03C227.079 98.077 223.184 90.1987 216.799 84.0557C211.4 78.8606 204.423 75.1572 198.736 73.0238L191.256 88.4911ZM166.327 41.9776L140.857 94.6451L171.723 110.086L197.193 57.4189L166.327 41.9776ZM168.158 117.457L137.293 102.015L135.113 106.524C132.188 112.573 134.665 119.851 140.672 122.856L149.58 127.313C155.699 130.374 163.137 127.839 166.117 121.678L168.158 117.457ZM21.2587 110.144C21.2587 107.884 23.0904 106.051 25.3499 106.051H85.3539C87.6133 106.051 89.445 107.884 89.445 110.144C89.445 112.405 87.6133 114.238 85.3539 114.238H75.8078V147.027C75.8078 147.244 75.8597 147.458 75.9592 147.652L113.526 220.617C118.669 230.606 111.421 242.5 100.191 242.5H15.0183C4.1083 242.5 -3.15266 231.217 1.36195 221.28L34.7737 147.732C34.8543 147.555 34.896 147.363 34.896 147.168V114.238H25.3499C23.0904 114.238 21.2587 112.405 21.2587 110.144ZM43.0783 114.238V147.168C43.0783 148.531 42.7866 149.879 42.2227 151.12L35.4577 166.012L75.9577 165.526L68.6853 151.401C67.9888 150.048 67.6254 148.549 67.6254 147.027V114.238H43.0783ZM80.1473 173.663L31.7178 174.244L8.81089 224.667C6.7588 229.185 10.0592 234.313 15.0183 234.313H100.191C105.296 234.313 108.59 228.907 106.252 224.366L80.1473 173.663ZM194.452 149.715C192.455 149.715 190.523 149.966 188.683 150.437C180.18 152.615 173.554 159.508 171.755 168.157C171.437 169.688 171.269 171.277 171.269 172.911C171.269 177.717 172.725 182.17 175.22 185.869C179.392 192.054 186.45 196.107 194.452 196.107C207.256 196.107 217.635 185.722 217.635 172.911C217.635 168.187 216.229 163.805 213.812 160.145C209.658 153.852 202.537 149.715 194.452 149.715ZM44.4421 185.191C46.7016 185.191 48.5332 187.024 48.5332 189.285V194.743C48.5332 197.004 46.7016 198.836 44.4421 198.836C42.1826 198.836 40.3509 197.004 40.3509 194.743V189.285C40.3509 187.024 42.1826 185.191 44.4421 185.191ZM53.9881 205.659C53.9881 200.384 58.2621 196.107 63.5342 196.107C68.8064 196.107 73.0803 200.384 73.0803 205.659C73.0803 210.934 68.8064 215.21 63.5342 215.21C58.2621 215.21 53.9881 210.934 53.9881 205.659ZM63.5342 204.294C62.7811 204.294 62.1705 204.905 62.1705 205.659C62.1705 206.412 62.7811 207.023 63.5342 207.023C64.2874 207.023 64.898 206.412 64.898 205.659C64.898 204.905 64.2874 204.294 63.5342 204.294Z" fill="black"/>
</svg>
