<svg width="244" height="243" viewBox="0 0 244 243" fill="none" xmlns="http://www.w3.org/2000/svg">
<path fill-rule="evenodd" clip-rule="evenodd" d="M17.7189 0L56.0881 24.6462V39.7969L119.2 102.859L133.316 95.8065L149.058 105.244V118.024L156.694 125.655H168.927L238.94 195.612L239.209 196.164C247.033 212.193 243.519 226.886 234.094 235.448C224.756 243.93 210.154 245.841 197.226 237.523L196.895 237.311L127.328 167.799L124.881 155.576L119.402 150.101H106.854L97.1407 137.16L104.337 120.381L38.6653 54.7612H23.463L0 16.9344L17.7189 0ZM187.881 8.59285C187.756 8.5166 187.58 8.45194 187.309 8.46276C173.444 9.01719 163.421 11.1777 155.678 15.8039C148.022 20.3775 142.165 27.624 137.173 39.2476C133.466 47.8784 134.57 57.9489 139.01 66.8231C141.08 70.9593 140.441 75.9354 137.393 79.4153L137.294 79.5284L121.03 95.2852L115.921 90.02L131.952 74.489C132.966 73.2559 133.163 71.5375 132.446 70.1029C127.288 59.7968 125.671 47.4307 130.428 36.3553C135.82 23.8014 142.536 15.1107 151.911 9.50946C161.198 3.9608 172.664 1.70871 187.016 1.13479C194.231 0.846242 198.144 8.97357 194.054 14.5464L174.746 40.8553L204.236 68.2172L230.992 45.9395C232.108 44.839 233.258 43.9129 234.442 43.2886C235.653 42.6497 237.245 42.1513 238.973 42.5471C240.801 42.9658 241.993 44.1979 242.686 45.4259C243.346 46.5937 243.669 47.9277 243.834 49.1741C244.476 54.0115 243.21 61.6699 240.845 69.6987C238.433 77.8856 234.706 87.0333 229.964 95.021C225.273 102.922 219.337 110.115 212.324 113.829C209.047 115.564 205.476 116.043 202.44 116.261C191.195 117.067 183.458 115.987 176.18 111.793C172.693 109.784 167.926 110.266 165.628 112.611C165.583 112.657 165.53 112.71 165.473 112.77C165.203 113.049 164.806 113.458 164.402 113.817L157.611 119.844L152.737 114.361L159.528 108.334C159.706 108.176 159.855 108.022 160.097 107.774C160.18 107.688 160.274 107.591 160.384 107.479C165.493 102.266 174.082 102.118 179.847 105.44C185.348 108.61 191.413 109.698 201.915 108.946C204.702 108.746 207.007 108.344 208.887 107.349C214.135 104.57 219.219 98.7449 223.651 91.2791C228.033 83.8997 231.535 75.331 233.804 67.628C235.988 60.211 236.883 54.0902 236.618 50.7142C236.446 50.8697 236.26 51.0465 236.059 51.2471L235.941 51.3647L203.974 77.9819L164.961 41.7854L188.135 10.2095C188.437 9.79829 188.436 9.36363 188.249 8.99977C188.153 8.81416 188.02 8.67765 187.881 8.59285ZM18.6137 9.29329L9.37331 18.1246L27.5491 47.4273H41.7055L113.041 118.706L105.559 136.152L110.524 142.767H122.442L131.643 151.96L134.089 164.183L201.521 231.561C211.619 237.876 222.4 236.159 229.157 230.021C235.807 223.981 239.085 213.119 232.872 199.921L165.887 132.989H153.654L141.718 121.062V109.396L132.994 104.166L117.751 111.782L48.7484 42.8347V28.6501L18.6137 9.29329ZM99.0514 119.695L63.7246 154.994H52.4183C30.1234 154.994 12.0499 173.053 12.0499 195.33V197.775C12.0499 218.702 29.0281 235.666 49.9717 235.666C70.9153 235.666 87.8935 218.702 87.8935 197.775V184.134L113.313 156.191L118.744 161.124L95.2332 186.969V197.775C95.2332 222.752 74.9689 243 49.9717 243C24.9745 243 4.71022 222.752 4.71022 197.775V195.33C4.71022 169.003 26.0698 147.66 52.4183 147.66H60.6844L93.8615 114.51L99.0514 119.695ZM206.404 212.587L150.133 156.361L155.322 151.175L211.593 207.401L206.404 212.587ZM24.6441 195.783C24.6441 181.607 36.1455 170.115 50.3331 170.115C64.5207 170.115 76.022 181.607 76.022 195.783C76.022 209.96 64.5207 221.452 50.3331 221.452C36.1455 221.452 24.6441 209.96 24.6441 195.783ZM50.3331 177.449C40.1991 177.449 31.9838 185.657 31.9838 195.783C31.9838 205.909 40.1991 214.118 50.3331 214.118C60.4671 214.118 68.6823 205.909 68.6823 195.783C68.6823 185.657 60.4671 177.449 50.3331 177.449Z" fill="black"/>
</svg>
