<svg width="186" height="186" viewBox="0 0 186 186" fill="none" xmlns="http://www.w3.org/2000/svg">
<circle cx="93" cy="93" r="93" fill="url(#paint0_radial_55_97)"/>
<path d="M93.5 146C123.047 146 147 122.047 147 92.5C147 62.9528 123.047 39 93.5 39C63.9528 39 40 62.9528 40 92.5C40 122.047 63.9528 146 93.5 146Z" fill="#FFCC4D"/>
<path d="M60.8026 89.5278C60.3568 89.5278 59.902 89.4267 59.477 89.2157C58.0087 88.4816 57.4143 86.6953 58.1484 85.227C58.3029 84.9149 62.0658 77.6389 72.6944 77.6389C83.3261 77.6389 87.0859 84.9179 87.2405 85.227C87.9746 86.6953 87.3772 88.4816 85.9119 89.2157C84.4526 89.9498 82.6871 89.3613 81.941 87.9198C81.8103 87.6791 79.4711 83.5833 72.6944 83.5833C65.8078 83.5833 63.4835 87.8425 63.4627 87.8841C62.9426 88.9274 61.8934 89.5278 60.8026 89.5278ZM126.194 89.5278C126.64 89.5278 127.095 89.4267 127.52 89.2157C128.988 88.4816 129.583 86.6953 128.849 85.227C128.694 84.9149 124.931 77.6389 114.303 77.6389C103.671 77.6389 99.9111 84.9179 99.7565 85.227C99.0224 86.6953 99.6198 88.4816 101.085 89.2157C102.544 89.9498 104.31 89.3613 105.056 87.9198C105.187 87.6791 107.526 83.5833 114.303 83.5833C121.189 83.5833 123.513 87.8425 123.534 87.8841C124.054 88.9274 125.104 89.5278 126.194 89.5278ZM127.689 108.907C128.649 106.68 129.06 105.171 129.075 105.111C129.473 103.524 128.51 101.916 126.92 101.515C125.327 101.111 123.719 102.074 123.308 103.664C123.088 104.54 117.519 125.194 93.5 125.194C69.4815 125.194 63.9115 104.54 63.6886 103.661C63.2784 102.074 61.6705 101.111 60.0774 101.512C58.4902 101.913 57.5272 103.521 57.9225 105.108C57.9879 105.37 64.7616 131.139 93.5 131.139C98.4042 131.139 102.625 130.348 106.325 129.103C119.195 124.769 125.27 114.509 127.689 108.907Z" fill="#664500"/>
<path d="M136.321 118.302L127.535 109.234C127.535 109.234 125.514 107.932 123.751 110.922C121.433 114.851 117.584 119.645 112.059 123.319C109.737 124.862 105.701 126.853 104.042 127.236C101.858 127.739 102.889 130.102 102.889 130.102C104.628 129.724 106.013 129.207 106.013 129.207L114.995 138.189C120.131 143.325 129.856 144.133 135.801 138.189C141.745 132.245 141.46 123.441 136.321 118.302Z" fill="#E75B70"/>
<path d="M128.914 131.359C129.547 130.726 129.547 129.7 128.914 129.067L118.128 118.281L115.762 120.504L126.619 131.362C127.253 131.992 128.281 131.992 128.914 131.359Z" fill="#DE3146"/>
<defs>
<radialGradient id="paint0_radial_55_97" cx="0" cy="0" r="1" gradientUnits="userSpaceOnUse" gradientTransform="translate(93 93) rotate(90) scale(93)">
<stop offset="0.307292" stop-color="#C0C0C0"/>
<stop offset="1" stop-color="#70B6E9"/>
</radialGradient>
</defs>
</svg>
