<svg width="186" height="186" viewBox="0 0 186 186" fill="none" xmlns="http://www.w3.org/2000/svg">
<circle cx="93" cy="93" r="93" fill="url(#paint0_radial_55_114)"/>
<path d="M146 92.5C146 122.047 122.047 146 92.5 146C62.9561 146 39 122.047 39 92.5C39 62.9561 62.9561 39 92.5 39C122.047 39 146 62.9561 146 92.5Z" fill="#FFCB4C"/>
<path d="M75.1898 93.7364C79.5349 93.7364 83.0573 88.8048 83.0573 82.7214C83.0573 76.6379 79.5349 71.7063 75.1898 71.7063C70.8447 71.7063 67.3223 76.6379 67.3223 82.7214C67.3223 88.8048 70.8447 93.7364 75.1898 93.7364Z" fill="#65471B"/>
<path d="M112.955 101.94C124.252 101.94 133.41 92.7818 133.41 81.4849C133.41 70.1881 124.252 61.0301 112.955 61.0301C101.658 61.0301 92.5 70.1881 92.5 81.4849C92.5 92.7818 101.658 101.94 112.955 101.94Z" fill="#F4F7F9"/>
<path d="M83.0632 68.5617C82.1061 68.5617 81.161 68.1278 80.5428 67.3045C77.5973 63.3782 74.5151 61.2738 71.3794 61.0509C67.248 60.7686 63.8805 63.8656 63.2533 64.4928C62.0228 65.7232 60.0314 65.7232 58.8039 64.4928C57.5734 63.2622 57.5734 61.2709 58.8039 60.0433C60.1622 58.685 65.1318 54.2891 71.8252 54.7736C76.8631 55.1303 81.4879 58.0757 85.5777 63.5268C86.6209 64.9178 86.3386 66.8913 84.9506 67.9316C84.3799 68.3566 83.7171 68.5617 83.0632 68.5617Z" fill="#65471B"/>
<path d="M136.56 146C134.821 146 133.413 144.591 133.413 142.852V83.0602C133.413 81.3215 134.821 79.9126 136.56 79.9126C138.299 79.9126 139.708 81.3215 139.708 83.0602V142.855C139.705 144.591 138.299 146 136.56 146Z" fill="#292F33"/>
<path d="M136.56 76.7651C136.4 76.7651 136.248 76.8007 136.091 76.8126C133.915 66.0294 124.371 57.8825 112.955 57.8825C99.9395 57.8825 89.3524 68.4696 89.3524 81.4849C89.3524 94.5003 99.9395 105.087 112.955 105.087C123.263 105.087 132.025 98.4355 135.235 89.2068C135.663 89.2989 136.103 89.3524 136.557 89.3524C140.035 89.3524 142.852 86.5348 142.852 83.0573C142.852 79.5827 140.035 76.7651 136.56 76.7651ZM112.955 98.7952C103.411 98.7952 95.6476 91.0317 95.6476 81.4849C95.6476 71.9382 103.414 64.1747 112.955 64.1747C122.499 64.1747 130.265 71.9382 130.265 81.4849C130.265 91.0317 122.499 98.7952 112.955 98.7952Z" fill="#67757F"/>
<path d="M101.937 123.97C101.464 123.97 100.983 123.863 100.531 123.637C95.1245 120.932 89.8696 120.932 84.4631 123.637C82.9057 124.413 81.0153 123.786 80.2396 122.228C79.4609 120.674 80.091 118.783 81.6484 118.005C88.8442 114.408 96.1439 114.408 103.346 118.005C104.9 118.783 105.53 120.674 104.754 122.228C104.205 123.334 103.093 123.97 101.937 123.97Z" fill="#65471B"/>
<path d="M122.368 66.9716C119.657 65.2091 116.429 64.1747 112.955 64.1747C103.396 64.1747 95.6446 71.9263 95.6446 81.4879C95.6446 84.9624 96.6789 88.1903 98.4385 90.9009L122.368 66.9716ZM105.569 97.1218C107.813 98.1829 110.31 98.7952 112.955 98.7952C122.514 98.7952 130.265 91.0466 130.265 81.4849C130.265 78.8397 129.653 76.34 128.592 74.099L105.569 97.1218Z" fill="#BDDDF4"/>
<defs>
<radialGradient id="paint0_radial_55_114" cx="0" cy="0" r="1" gradientUnits="userSpaceOnUse" gradientTransform="translate(93 93) rotate(90) scale(93)">
<stop offset="0.307292" stop-color="#C0C0C0"/>
<stop offset="1" stop-color="#88D1A5"/>
</radialGradient>
</defs>
</svg>
