<svg width="186" height="186" viewBox="0 0 186 186" fill="none" xmlns="http://www.w3.org/2000/svg">
<circle cx="93" cy="93" r="93" fill="url(#paint0_radial_55_118)"/>
<path d="M147 89.7345C147 77.6709 137.142 67.8935 124.979 67.8935C121.84 67.8935 116.156 69.7313 116.156 69.7313L74.0758 74.132C74.0758 74.132 65.3654 69.1049 60.0244 69.1049C47.8581 69.1049 38 78.8824 38 90.9459C38 91.6995 38.0385 92.4436 38.1122 93.1781C39.3016 121.989 63.163 145 92.5 145C122.6 145 147 120.8 147 90.9459C147 90.7806 146.971 90.6248 146.962 90.4595C146.971 90.2178 147 89.9793 147 89.7345Z" fill="#FFCB4C"/>
<path d="M131.375 74.256C128.358 73.4801 128.14 75.4833 124.315 75.0382C120.571 74.6025 125.69 72.6884 123.69 71.566C123.017 71.1876 122.052 71.1081 120.862 71.2544C117.49 71.6645 66.5099 72.9841 64.6088 73.8935C62.9193 74.7011 61.9191 75.6359 60.3835 74.2146C58.4503 72.4277 55.6836 73.4579 54.8822 74.0525C53.8499 74.8219 53.6351 76.3482 55.6324 78.1129C57.6232 79.4483 60.9958 80.8442 66.7407 81.7981C67.3723 81.903 67.9109 81.9443 68.4142 81.9634C72.3478 82.0938 72.8928 76.6534 78.4486 76.5071C82.0905 76.4118 114.204 79.9094 116.849 79.5533C117.172 79.5087 117.512 79.4769 117.903 79.4769C122.914 79.4769 124.078 84.0874 129.409 80.4817C131.669 78.6598 135.215 75.2416 131.375 74.256Z" fill="#F19020"/>
<path d="M53.8306 59.5151C58.7132 64.3704 62.1788 69.5119 64.6088 73.8935C66.4234 77.1653 67.6736 80.0302 68.4142 81.9666C72.3478 82.097 72.8928 79.8362 78.4486 79.69C82.0905 79.5946 84.1647 82.1351 86.8576 83.5978C91.6729 86.2114 95.0936 81.2766 98.7803 81.2766C101.505 81.2766 105.894 85.1145 108.962 83.7059C113.409 81.6614 114.204 79.9189 116.849 79.5596C117.881 77.0445 119.224 74.1669 120.862 71.2639C123.235 67.0541 126.242 62.7901 129.97 59.5215H53.8306V59.5151Z" fill="#F36C24"/>
<path d="M128.746 60.5326C132.852 56.5167 54.8854 60.5835 57.1231 63.0382C60.2905 66.5167 64.176 73.0636 64.176 73.0636C64.176 73.0636 79.4264 80.7106 90.9484 71.0731C98.9631 75.8426 110.184 74.1542 115.191 65.9571C115.191 65.9571 119.093 67.3975 123.049 67.6455C123.049 67.6455 126.104 63.1145 128.746 60.5326Z" fill="#CE5C1F"/>
<path d="M92.5 137.331C100.17 137.331 106.388 130.284 106.388 121.591C106.388 112.899 100.17 105.852 92.5 105.852C84.8299 105.852 78.6121 112.899 78.6121 121.591C78.6121 130.284 84.8299 137.331 92.5 137.331Z" fill="#65471B"/>
<path d="M79.6765 96.0525C79.6765 100.736 76.804 104.533 73.2647 104.533C69.7222 104.533 66.8529 100.736 66.8529 96.0525C66.8529 91.3688 69.7222 87.5723 73.2647 87.5723C76.804 87.5723 79.6765 91.3688 79.6765 96.0525ZM118.147 96.0493C118.147 100.733 115.278 104.529 111.735 104.529C108.193 104.529 105.324 100.733 105.324 96.0493C105.324 91.3688 108.196 87.5692 111.735 87.5692C115.278 87.5723 118.147 91.3688 118.147 96.0493Z" fill="#65471B"/>
<path d="M134.577 42.3768C133.808 42.3768 133.08 42.5199 132.378 42.7234C130.172 40.0366 126.854 38.2846 123.087 38.2846C122.808 38.2846 122.546 38.3482 122.27 38.3672C119.917 35.7377 116.518 34.0461 112.694 34.0461C107.869 34.0461 103.717 36.7138 101.518 40.6153C100.409 38.0779 97.8666 36.3005 94.9012 36.3005C92.5994 36.3005 90.5765 37.3879 89.2556 39.0509C87.6271 34.3768 83.2029 31 77.9389 31C73.6975 31 69.9883 33.1908 67.8468 36.4785C67.2569 36.3863 66.667 36.2941 66.0515 36.2941C61.4606 36.2941 57.5206 38.876 55.4945 42.628C54.8437 42.5072 54.1801 42.4277 53.494 42.4277C47.5183 42.4277 42.6742 47.2321 42.6742 53.159C42.6742 59.0858 47.5183 63.8903 53.494 63.8903C55.3791 63.8903 57.1327 63.3847 58.6683 62.5389C59.8737 63.4356 61.3549 63.9889 62.9802 63.9889C63.4451 63.9889 63.8939 63.938 64.3331 63.8521C67.0741 68.2369 71.9214 71.1749 77.5061 71.1749C82.9849 71.1749 87.7841 68.3609 90.5636 64.1256C92.8719 66.93 96.3406 68.7583 100.274 68.7583C106.093 68.7583 110.94 64.8219 112.38 59.5024C112.489 59.5056 112.588 59.5342 112.697 59.5342C113.604 59.5342 114.489 59.4356 115.345 59.2576C117.442 61.0254 120.125 62.132 123.094 62.132C126.857 62.132 130.179 60.38 132.381 57.6932C133.083 57.8967 133.811 58.0397 134.58 58.0397C138.94 58.0397 142.477 54.5326 142.477 50.2083C142.477 45.8839 138.937 42.3768 134.577 42.3768Z" fill="#CCD6DD"/>
<path d="M123.902 55.6137C127.657 55.6137 130.701 52.5943 130.701 48.8696C130.701 45.145 127.657 42.1256 123.902 42.1256C120.146 42.1256 117.102 45.145 117.102 48.8696C117.102 52.5943 120.146 55.6137 123.902 55.6137Z" fill="#E1E8ED"/>
<path d="M98.5142 49.3021C98.5142 45.5087 95.4141 42.4308 91.5895 42.4308C90.4098 42.4308 89.3134 42.752 88.342 43.2671C87.5373 41.3561 85.6362 40.0111 83.4145 40.0111C81.5968 40.0111 79.9939 40.9173 79.0289 42.2941C76.8809 40.3132 74.0245 39.0731 70.8603 39.0731C65.234 39.0731 60.5502 42.9205 59.239 48.097C58.0688 46.93 56.4499 46.2051 54.6578 46.2051C51.096 46.2051 48.2075 49.07 48.2075 52.6025C48.2075 56.1351 51.096 59 54.6578 59C56.9115 59 58.8863 57.8521 60.0404 56.1161C61.6979 59.5533 64.9422 62.0715 68.8534 62.7266C70.1037 64.8569 72.4023 66.3037 75.0664 66.3037C78.5095 66.3037 81.3788 63.9062 82.0969 60.7075C83.1356 61.2798 84.3122 61.6359 85.5817 61.6359C89.012 61.6359 91.8716 59.2544 92.6026 56.0715C95.9431 55.5787 98.5142 52.752 98.5142 49.3021Z" fill="#E1E8ED"/>
<defs>
<radialGradient id="paint0_radial_55_118" cx="0" cy="0" r="1" gradientUnits="userSpaceOnUse" gradientTransform="translate(93 93) rotate(90) scale(93)">
<stop offset="0.307292" stop-color="#C0C0C0"/>
<stop offset="1" stop-color="#DB87D2"/>
</radialGradient>
</defs>
</svg>
