<svg width="186" height="186" viewBox="0 0 186 186" fill="none" xmlns="http://www.w3.org/2000/svg">
<circle cx="93" cy="93" r="93" fill="url(#paint0_radial_174_18)"/>
<path d="M147 92.5C147 122.047 123.047 146 93.5 146C63.9561 146 40 122.047 40 92.5C40 62.9561 63.9561 39 93.5 39C123.047 39 147 62.9561 147 92.5Z" fill="#FFCC4D"/>
<path d="M85.9416 86.0057C85.7633 85.6044 81.4863 76.2063 72.6944 76.2063C63.9056 76.2063 59.6256 85.6044 59.4473 86.0057C59.1738 86.6209 59.3521 87.3402 59.8752 87.7623C60.4013 88.1873 61.1444 88.1992 61.6883 87.8039C61.7269 87.7771 65.4393 85.1229 72.6944 85.1229C79.9051 85.1229 83.6144 87.7415 83.6976 87.8009C83.9592 87.9971 84.2713 88.0952 84.5833 88.0952C84.9103 88.0952 85.2402 87.9852 85.5077 87.7712C86.0397 87.3491 86.2151 86.6239 85.9416 86.0057Z" fill="#66471B"/>
<path d="M132.139 79.125C132.139 89.7953 123.49 98.4444 112.819 98.4444C102.149 98.4444 93.5 89.7953 93.5 79.125C93.5 68.4547 102.149 59.8056 112.819 59.8056C123.49 59.8056 132.139 68.4547 132.139 79.125Z" fill="#F5F8FA"/>
<path d="M112.819 86.5556C116.923 86.5556 120.25 83.2288 120.25 79.125C120.25 75.0212 116.923 71.6944 112.819 71.6944C108.716 71.6944 105.389 75.0212 105.389 79.125C105.389 83.2288 108.716 86.5556 112.819 86.5556Z" fill="#292F33"/>
<path d="M60.8056 102.195C60.8056 113.977 74.4659 128.945 93.5 128.945C112.534 128.945 126.194 114.084 126.194 102.195C126.194 102.195 95.4825 110.387 60.8056 102.195Z" fill="#66471B"/>
<path d="M95.1199 109.156L91.8772 109.141C82.3185 108.922 75.6667 107.37 75.6667 107.37V128.06C75.6667 136.976 81.6111 145.893 93.5 145.893C105.389 145.893 111.333 136.976 111.333 128.06V107.492C105.621 108.663 100.078 109.103 95.1199 109.156Z" fill="#E8596E"/>
<path d="M93.5 133.644C94.3946 133.644 95.1199 132.919 95.1199 132.025V109.156L91.8772 109.141V132.025C91.8801 132.919 92.6054 133.644 93.5 133.644Z" fill="#DD2F45"/>
<defs>
<radialGradient id="paint0_radial_174_18" cx="0" cy="0" r="1" gradientUnits="userSpaceOnUse" gradientTransform="translate(93 93) rotate(90) scale(93)">
<stop offset="0.307292" stop-color="#C0C0C0"/>
<stop offset="1" stop-color="#A5E970"/>
</radialGradient>
</defs>
</svg>
